<svg width="165" height="20" viewBox="0 0 165 20" fill="none" xmlns="http://www.w3.org/2000/svg">
<path fill-rule="evenodd" clip-rule="evenodd" d="M158.548 7.83599L165 19.2592H160.132L155.831 11.6487L158.548 7.83599ZM132.108 1.48145H136.41V19.2592H132.108V1.48145ZM142.461 1.48145H146.762V19.2592H142.461V10.3703H137.155L138.431 8.59106H142.453L142.461 1.48145ZM96.6282 19.2592H92.3267V9.16671L96.6282 3.328V19.2592ZM82.1824 1.48145H86.448V13.3233L94.9578 1.48145H96.9078L84.1324 19.2592H82.1824V1.48145ZM58.4238 1.48145H62.6895V19.2592H58.4238V13.0318H53.2907L54.5668 11.26H58.4238V4.19521L47.6056 19.2592H45.6699L58.4238 1.48145ZM74.5257 7.83599L80.9779 19.2592H76.1029L71.8014 11.6487L74.5257 7.83599ZM65.1342 1.48145H69.3998V10.6619L75.9739 1.51135H77.9311L69.3998 13.3458V19.2592H65.1342V1.48145ZM110.837 3.26072H103.324V17.465H107.461C108.771 16.8049 109.606 15.4238 109.612 13.9065C109.615 12.3882 108.777 11.0044 107.461 10.3554H103.74L105.016 8.57611H108.292C110.166 8.50297 111.927 9.50334 112.885 11.1838C113.842 12.8643 113.842 14.9561 112.885 16.6366C111.927 18.317 110.166 19.3174 108.292 19.2443H99.0442V1.48145H112.092L110.837 3.26072ZM125.412 1.48145H129.714V19.2592H125.412V13.0318H120.279L121.555 11.26H125.412V4.19521L114.594 19.2592H112.644L125.412 1.48145ZM149.156 1.48145H153.458V10.6619L160.032 1.51135H161.982L153.422 13.3458V19.2592H149.121L149.156 1.48145Z" fill="#113F72"/>
<path fill-rule="evenodd" clip-rule="evenodd" d="M16.8758 3.1273L30.1324 10L16.8758 16.8727L3.61927 10L16.8758 3.1273ZM18.0823 6.24724L23.5041 9.05813L18.0823 11.8764V10L19.8706 9.05813L18.0823 8.09419V6.24724ZM20.4881 0L39.7768 10L20.4881 20L18.6855 19.0581L36.193 10L18.6855 0.934511L20.4881 0ZM16.8759 9.43341L15.1869 10.3017V8.37381L12.0643 10L16.8759 12.5092V14.3856L8.43794 10L16.8759 5.62178V9.43341ZM16.8759 1.25092L33.7517 10L16.8759 18.7491L0 10L16.8759 1.25092Z" fill="#BB9434"/>
</svg>
